<mxfile host="app.diagrams.net" modified="2024-07-17T13:55:28.260Z" agent="Mozilla/5.0 (Windows NT 10.0; Win64; x64) AppleWebKit/537.36 (KHTML, like Gecko) Chrome/126.0.0.0 Safari/537.36" version="24.7.1" etag="TJGry7eHYNc2oO-Z7yl7" type="github">
  <diagram name="PÃ¡gina-1" id="gnCDJtT5dkTpXX-kf73-">
    <mxGraphModel>
      <root>
        <mxCell id="0" />
        <mxCell id="1" parent="0" />
      </root>
    </mxGraphModel>
  </diagram>
</mxfile>
